<svg xmlns="http://www.w3.org/2000/svg" height="5333.333" width="5333.333" xml:space="preserve"><path style="fill:#fff;fill-opacity:0;fill-rule:nonzero;stroke:none" d="M0 0h40000v40000H0z" transform="matrix(.13333 0 0 -.13333 0 5333.333)" fill="none"/><path style="fill:#d41341;fill-opacity:1;fill-rule:nonzero;stroke:none" d="M33233.3 20000c0-7308.6-5924.7-13233.3-13233.3-13233.3-7308.6 0-13233.34 5924.7-13233.34 13233.3 0 7308.6 5924.74 13233.3 13233.34 13233.3S33233.3 27308.6 33233.3 20000" transform="matrix(.13333 0 0 -.13333 0 5333.333)"/><path style="fill:#ffa42c;fill-opacity:1;fill-rule:nonzero;stroke:none" d="M26559.5 22034.5c-1210 127.9-2451.9 136.7-3681.9 33.9-3208.2-268.2-6338.8-1297.9-8635-2969.3-1.1-.5-2.1-1.5-3.1-2-183.4-133.6-361.2-270.8-533.4-412.6-673-317-1475.1 536.4-553.3 1382.6 74 71 150 140.8 227.1 209.7 2275.6 2046.5 5832.7 3510.3 9618.4 3668.5 1234.7 51.4 2493.5-35.4 3740-286.7 816.4-208.6 1048.1-1551.1-178.8-1624.1" transform="matrix(.13333 0 0 -.13333 0 5333.333)"/><path style="fill:#ffa42c;fill-opacity:1;fill-rule:nonzero;stroke:none" d="M26559.5 22034.5 23603.6 7248.2c-265.7-1329.7-1961.2-1678.1-2746.8-649.4-39.1 51.4-76.1 106.4-110.5 164.4l-7040.2 11921.3c2330.7 1916 5705.8 3094.1 9171.5 3383.9 1230 102.8 2471.9 94 3681.9-33.9" transform="matrix(.13333 0 0 -.13333 0 5333.333)"/><path style="fill:#ffdbab;fill-opacity:1;fill-rule:nonzero;stroke:none" d="M22280.9 6221.1c113.1 64.1 218.7 142.7 313.4 235.2 108.5.7 216.9 12.4 323 34.9-190.2-146.4-408.3-231.6-610.2-265.9-8.6-1.4-17.4-2.8-26.2-4.2m-1245.4 482.3c-39.7 50.3-77.3 105-112.4 164.5l-286.7 485.3c91.7 143.5 191.5 281.6 298.5 413.6l323.2-547.3c34.4-58.1 71.4-113.1 110.4-164.5 6-7.8 12.1-15.6 18.2-23.3-93.4-119.2-208.7-231.8-351.2-328.3m-462.6 757.3-1034.4 1751.7c15.7 20.4 31.6 40.8 47.6 61.1 191.5-48.8 380.1-109.5 565-179.6l713.9-1208.8c-105.1-136-202.7-277.7-292.1-424.4M20047 9270.1c-125.2 39.6-251.9 74.7-379.8 104.7 61 75 123.4 148.9 187.1 221.7l192.7-326.4m-500.8 131.6c-44.9 9.3-89.8 18-134.9 26L18299.7 11310c87 148.6 184.6 291.5 289.2 429.3l1200.9-2033.6c-83.6-99.5-164.8-200.8-243.6-304m-1309.5 2015-655.8 1110.5c209.3-40.1 417.6-86.1 624.3-138.1l319-540.3c-103.3-138.6-200.3-282.3-287.5-432.1m-116.1 1115.6c-202.9 44.8-407.1 83.8-612 117.3l-479.3 811.6c90.3 148.3 185.7 293.3 285.7 435.2l805.6-1364.1M16968 13565l-1263.2 2139c85.2 157.1 175 311.6 269.1 463.4l1277.6-2163.4c-99.2-143.1-193.8-289.5-283.5-439m-1325.9 2245.2-372.2 630.3c195.8-17.8 390.9-42 585.2-72l54.4-92.1c-93.4-152.8-182.8-308.2-267.4-466.2m138.5 684.5c-191.5 25-383.9 44.5-576.7 57.6l-1230.8 2084.1c121.9 96.9 246.8 192 374.4 285.1l1433.1-2426.8M13407.8 18822c-165.4 0-310.3 88.5-389.5 206.6-142.7 212.4-86.3 488.3 148 758.4 14.3-338.7 289.6-696.2 614.5-778.7-62-48.7-123.3-97.7-183.9-147.2-64.3-27-128.1-39.1-189.1-39.1" transform="matrix(.13333 0 0 -.13333 0 5333.333)"/><path style="fill:#d41341;fill-opacity:1;fill-rule:nonzero;stroke:none" d="M22259.9 21126.3c56.2 212.3 65.8 444.1 28.2 677.8 690.3 78.9 1389 122.5 2088.1 128.6 99.3-67.2 196.3-138.1 290.5-211.1 80.6-62.6 159.1-127.6 235.5-194.9-606.5-8.1-1211.8-72.7-1805.4-193.4-281.9-57-561.2-126.2-836.9-207m3609.1 365.3c-233.8 20.2-468.4 31.8-702.9 35.1-131.5 112.5-268.4 218.3-410.1 316.7-44.7 30.6-89.7 60.6-135 89.9 442.7-1.7 885.5-18.4 1326.2-50.7l-78.2-391m-3675.4 714.2c-25.3 89.6-51.5 175.4-76.2 256.3-103.2 338-192.4 630-95.5 795 68.3 116.1 247.4 206.5 532.5 268.7 677.3 102.2 1334.2 153.3 1967.3 153.3 689.7 0 1350.9-60.6 1979-181.9 383.9-320.6 479.7-940.5 68.3-1256.3-1.9-.1-3.8-.3-5.7-.4-665.7 69.7-1337.3 103.7-2009.4 103.7-790.1 0-1580.3-47.1-2360.3-138.4m390.9-15749.5c-442.4 0-887.3 184-1197.8 575.4 399.4 509.9 396.5 1139.8 396.5 1139.8l.9 11.9c241.8-181.6 471.5-378.5 685.6-590.3 176.5-175.1 343.1-360.7 492.8-557-81.4-230.6-209.5-424.8-368.2-579.8h-9.8" transform="matrix(.13333 0 0 -.13333 0 5333.333)"/><path style="fill:#b2999a;fill-opacity:1;fill-rule:nonzero;stroke:none" d="M22076.3 6206.1c-353 0-752.6 132.5-1040.8 497.3 142.5 96.5 257.8 209.1 351.2 328.3 310.5-391.4 755.4-575.4 1197.8-575.4h9.8c-94.7-92.5-200.3-171.1-313.4-235.2-65.5-9.7-134.1-15-204.6-15" transform="matrix(.13333 0 0 -.13333 0 5333.333)"/><path style="fill:#d41341;fill-opacity:1;fill-rule:nonzero;stroke:none" d="M23036.4 7322.3c-131.1 150.4-270.6 292.7-415.3 428.2-256.5 239.1-531.3 456.7-819.6 653.4l15.9 202c79 57.9 159.7 113.5 241.9 166.5 311.1 200.9 644 367.1 990.2 494.4 34.6 12.3 68.5 26.2 103.3 38.1 75.8-98.4 149.1-198.6 219.9-300.7l-336.3-1681.9m-1201.2 1510.6 133.6 1696c203.1-168.8 397.8-347.4 582.8-535.3 160-162.4 312.6-331.8 457.1-507.6-12.6-5.3-25.3-10.5-38-15.6-356.9-145.2-696.5-329.7-1011.5-548.7-41.8-29-83.1-58.5-124-88.8m1601.7 492.5c-14 18.3-28.2 36.5-42.4 54.7 18.7 5.2 37.5 10.1 56.3 14.9l-13.9-69.6m-196.9 245.8c-168.3 201.3-346.7 393.9-534.1 577-227.1 222-467.2 430-717.9 623.8l47.7 606.7c336.7 187.6 687.9 347.2 1051.2 467.5 274.7 90.9 557.2 158.7 841.9 195.6 7.5-9.3 15-18.7 22.4-28 6.1-8.1 12.2-16.1 18.3-24.2l-467.2-2337.2c-87.5-25.6-175.6-48.7-260.8-80.7l-1.5-.5m-1186.2 2036.9 159.2 2020.8c93.3-68.4 185.7-138 277.1-208.7 358.8-278.6 702.5-576.5 1017-900 85-85.6 166.1-174.4 244.6-265.2-251.2-47.6-497.4-116.9-735.9-202.3-334.3-119.9-655-270.9-962-444.6m1978.2 694.5c-113.6 133.3-231.2 262.4-355.5 384.2-329.3 329.4-684.6 628.4-1053.8 906.9-128.5 96.5-258.6 190.7-390.3 282.6l49.8 631.1c279.9 126 565.3 238.8 855.5 336 312.7 103.8 631.4 188.5 953.6 242.9 138.8-157.1 272.4-318.3 400.5-483.8l-459.8-2299.9m-1731.7 2435.6 146.8 1864c192.4-146.4 380.6-298.2 564.1-455.5 313.7-269.2 613.6-554.7 895-856.5-285.7-61.3-565.4-143.8-839.2-240.2-260.6-92.6-516.1-197-766.7-311.8m2254.3 178.5c-58.6 70.4-118.2 140.2-178.6 209 74.6 8 149.4 14.1 224 18l-45.4-227m-374 425.1c-321.9 345.9-667 669.7-1028.4 971.6-222.6 185.8-451.5 363.5-685.8 533.4l65.4 830.6c203.8 63.1 409.8 118.7 617.7 166.2 509.7 116.7 1031.1 182.7 1552.2 189.7 130.4-158 256.8-319.3 379.3-483.4l-431.1-2156.6c-157.8-8.7-314.6-26.7-469.3-51.5m962.2 2517.1c-46.8 57.7-94 115-141.7 171.9 58.2-1.8 116.4-4.4 174.5-7.7l-32.8-164.2m-2593.2 43.6 159.4 2024c222.6-163.5 438.9-335.4 648.1-515.4 410.6-352.6 792.6-736.4 1147-1144.4-474.2-26-945.3-98.3-1404.7-210.6-185.1-45.1-368.5-96.4-549.8-153.6m2675.3 367.1c-110.1 5.2-220.3 7.8-330.4 7.8-35.1 0-70.2-.2-105.3-.8-404.9 457.9-843.6 885.4-1316.5 1272.2-241.6 198.1-491.7 385.6-749.2 562l60.6 769.2c-164.5-213.3-395.7-297-605.8-322.7-50.2-6.4-99.1-9.4-145.5-10.2-19.8 11.5-39.5 22.9-59.3 34.3 76.2 83.5 144 184.1 199.3 303.1 318.1 94.2 640.5 172.7 966.2 234.5 586.7 112.1 1183.1 168.1 1779.3 168.1 80.2 0 160.4-1 240.5-3.1 27.2-27.6 54-55.5 80.6-83.7 171.2-178.5 322.1-374.5 455.5-579.5l-470-2351.2m530.9 2655.4c-98.1 122-202.3 238.4-313.1 347.6 125.8-6.9 251.5-16.4 376.9-28.4l-63.8-319.2" transform="matrix(.13333 0 0 -.13333 0 5333.333)"/><path style="fill:#000072;fill-opacity:1;fill-rule:nonzero;stroke:none" d="M13405.9 18411.2c-286.1-.1-560.8 137.9-728.9 388.2-222.9 331.8-251.4 878.9 336.8 1418.9 83.6 76.8 213.7 71.2 290.4-12.4 76.8-83.6 71.2-213.6-12.4-290.3-336.7-309.1-439-640.7-273.5-887 108.4-161.6 339.9-267.8 578.6-167.5 3121.7 2552.4 8205.4 3877.5 12966.4 3379.4 388.1 27.5 616.5 199.7 643.9 486.1 26.9 281.7-164.2 641.9-520 732.8-109.9 28.1-176.3 140-148.2 250 28 110 139.8 176.4 250 148.2 514.1-131.3 877.5-645.3 827.4-1170.1-37-387.1-330.9-815.8-1044.9-858.4-11.2-.7-22.6-.4-33.8.8-4672.8 493.3-9658.4-803.5-12701.3-3304-13.1-10.8-27.6-19.9-42.9-27.1-125.6-59.2-257.8-87.6-387.6-87.6" transform="matrix(.13333 0 0 -.13333 0 5333.333)"/><path style="fill:#000072;fill-opacity:1;fill-rule:nonzero;stroke:none" d="M22064.6 5793.5c-615.1 0-1170.4 314.8-1495.4 865.4L13529 18580.2c-57.7 97.7-25.3 223.7 72.4 281.5 97.6 57.7 223.8 25.2 281.5-72.5l7040.2-11921.3c347.2-588 942.3-717.4 1384-642.6 441.5 74.9 960.9 393.5 1094.8 1063.2l2955.8 14786.1c22.3 111.2 130.7 183.3 241.8 161.2 111.4-22.2 183.5-130.5 161.3-241.8L23804.9 7207.9c-146.2-731.3-693.8-1263.1-1429-1387.8-104.9-17.8-208.9-26.6-311.3-26.6" transform="matrix(.13333 0 0 -.13333 0 5333.333)"/><path style="fill:#d41341;fill-opacity:1;fill-rule:nonzero;stroke:none" d="m15973.9 16167.4-64.4 109c15.6 25.4 31.2 50.6 47 76 40.6-6.7 81.1-13.6 121.6-20.8-35.3-54.4-70-109.1-104.2-164.2" transform="matrix(.13333 0 0 -.13333 0 5333.333)"/><path style="fill:#b2999a;fill-opacity:1;fill-rule:nonzero;stroke:none" d="m15704.8 15704-62.7 106.2c84.6 158 174 313.4 267.4 466.2l64.4-109c-94.1-151.8-183.9-306.3-269.1-463.4" transform="matrix(.13333 0 0 -.13333 0 5333.333)"/><path style="fill:#000072;fill-opacity:1;fill-rule:nonzero;stroke:none" d="m15607.6 15519.6-92 45.8c40.9 82.3 83.1 163.9 126.5 244.8l62.7-106.2c-33.1-61.1-65.5-122.5-97.2-184.4" transform="matrix(.13333 0 0 -.13333 0 5333.333)"/><path style="fill:#d41341;fill-opacity:1;fill-rule:nonzero;stroke:none" d="M16149.2 16439.7c-41.4 7-83 13.7-124.5 20.1 372.2 578.6 805.3 1118 1281 1615.1 43.2-29.8 84.8-53.8 123.2-73.1-472.8-479.9-905.4-1001.7-1279.7-1562.1m3340 3218.6c-22.7 52.8-49 104.1-78.4 153.1 202.8 130.9 409.7 255.6 620.4 373.8 191.8 107.6 387 209.6 585.1 305.6 53.4-48.2 112.5-90.2 176.5-124.8-228.7-104.8-453.8-217.7-674.7-338.2-213.5-116.4-423.2-239.7-628.9-369.5" transform="matrix(.13333 0 0 -.13333 0 5333.333)"/><path style="fill:#7c5050;fill-opacity:1;fill-rule:nonzero;stroke:none" d="M22172.8 20884.5c26.7 57.6 50.6 119.5 71.1 185.8 5.7 18.5 11 37.2 16 56 275.7 80.8 555 150 836.9 207 593.6 120.7 1198.9 185.3 1805.4 193.4 88.5-77.9 174.1-158.9 256.6-242.7-80.1 2.1-160.3 3.1-240.5 3.1-596.2 0-1192.6-56-1779.3-168.1-325.7-61.8-648.1-140.3-966.2-234.5" transform="matrix(.13333 0 0 -.13333 0 5333.333)"/><path style="fill:#d41341;fill-opacity:1;fill-rule:nonzero;stroke:none" d="M26183.4 21202.4c-121 16.3-242.3 30.3-363.8 41.8l49.4 247.4c121.7-10.5 243.3-23.3 364.5-38.4l-50.1-250.8" transform="matrix(.13333 0 0 -.13333 0 5333.333)"/><path style="fill:#7c5050;fill-opacity:1;fill-rule:nonzero;stroke:none" d="M25819.6 21244.2c-125.4 12-251.1 21.5-376.9 28.4-21.8 21.5-43.8 42.7-66.1 63.6-68.5 65.5-138.7 129-210.5 190.5 234.5-3.3 469.1-14.9 702.9-35.1l-49.4-247.4" transform="matrix(.13333 0 0 -.13333 0 5333.333)"/><path style="fill:#000072;fill-opacity:1;fill-rule:nonzero;stroke:none" d="M26338 21180.3c-51.5 7.8-103 15.2-154.6 22.1l50.1 250.8c47.4-5.9 94.8-12.2 142.1-18.8l-37.6-254.1" transform="matrix(.13333 0 0 -.13333 0 5333.333)"/><path style="fill:#d41341;fill-opacity:1;fill-rule:nonzero;stroke:none" d="m17315 13896.4-63.5 107.6c358.8 518.1 776.7 994.9 1229.1 1432.8 52.5 50.6 105.6 100.8 159.2 150.4 49.9-19.8 99.8-39.8 149.5-60.1-71.3-63.3-141.8-127.6-211.4-192.7-465.1-437.3-895-916.1-1262.9-1438" transform="matrix(.13333 0 0 -.13333 0 5333.333)"/><path style="fill:#b2999a;fill-opacity:1;fill-rule:nonzero;stroke:none" d="m17029.3 13461.2-61.3 103.8c89.7 149.5 184.3 295.9 283.5 439l63.5-107.6c-100-141.9-195.4-286.9-285.7-435.2" transform="matrix(.13333 0 0 -.13333 0 5333.333)"/><path style="fill:#000072;fill-opacity:1;fill-rule:nonzero;stroke:none" d="m16925.2 13284.7-89.9 49.8c42.9 77.7 87.1 154.5 132.7 230.5l61.3-103.8c-35.5-58.3-70.2-117.2-104.1-176.5" transform="matrix(.13333 0 0 -.13333 0 5333.333)"/><path style="fill:#d41341;fill-opacity:1;fill-rule:nonzero;stroke:none" d="M18923.4 15644.2c-51.4 20.5-102.9 40.6-154.6 60.5 567.1 508.8 1187 959.2 1848 1340.7 217 124.9 438.5 242.4 664.3 351.5 65.1-39.7 129.8-79.9 194.2-120.7-261.8-117.9-518.7-247.5-769.7-387.3-633.2-353.2-1231.2-771.3-1782.2-1244.7m2767 1725.7c-67 42-134.3 83.4-202 124.3 344.9 157 699.1 294.2 1061.2 408.3l-17.8-225.1c-285-88.3-565.8-191.3-841.4-307.5" transform="matrix(.13333 0 0 -.13333 0 5333.333)"/><path style="fill:#7c5050;fill-opacity:1;fill-rule:nonzero;stroke:none" d="m22531.8 17677.4 17.8 225.1c181.3 57.2 364.7 108.5 549.8 153.6 459.4 112.3 930.5 184.6 1404.7 210.6 66.8-77 132.7-154.8 197.6-233.4-521.1-7-1042.5-73-1552.2-189.7-207.9-47.5-413.9-103.1-617.7-166.2" transform="matrix(.13333 0 0 -.13333 0 5333.333)"/><path style="fill:#d41341;fill-opacity:1;fill-rule:nonzero;stroke:none" d="M25541.6 17992c-121.7 13.8-243.7 24.2-366 31.1l49.3 246.5c122.4-5.9 244.6-15 366.7-27.6l-50-250" transform="matrix(.13333 0 0 -.13333 0 5333.333)"/><path style="fill:#7c5050;fill-opacity:1;fill-rule:nonzero;stroke:none" d="M25175.6 18023.1c-58.1 3.3-116.3 5.9-174.5 7.7-69.6 82.8-140.2 164.8-211.9 245.8 35.1.6 70.2.8 105.3.8 110.1 0 220.3-2.6 330.4-7.8l-49.3-246.5" transform="matrix(.13333 0 0 -.13333 0 5333.333)"/><path style="fill:#000072;fill-opacity:1;fill-rule:nonzero;stroke:none" d="M25748.5 17964.9c-68.8 10.2-137.8 19.2-206.9 27.1l50 250c64.3-6.6 128.5-14.2 192.7-22.7l-35.8-254.4" transform="matrix(.13333 0 0 -.13333 0 5333.333)"/><path style="fill:#d41341;fill-opacity:1;fill-rule:nonzero;stroke:none" d="m18588.9 11739.3-64.7 109.5c45.6 61 92.3 121 140 180.1 51.1 62.9 103.3 124.8 156.5 185.7 44.1-13.9 88.2-28.2 132.1-42.7-66.4-72.1-131.4-145.7-194.4-220.7-58.1-69.3-114.8-139.9-169.5-211.9" transform="matrix(.13333 0 0 -.13333 0 5333.333)"/><path style="fill:#b2999a;fill-opacity:1;fill-rule:nonzero;stroke:none" d="m18299.7 11310-63 106.7c87.2 149.8 184.2 293.5 287.5 432.1l64.7-109.5c-104.6-137.8-202.2-280.7-289.2-429.3" transform="matrix(.13333 0 0 -.13333 0 5333.333)"/><path style="fill:#000072;fill-opacity:1;fill-rule:nonzero;stroke:none" d="m18173.8 11074.9-93.2 43.1c47.3 102.3 99.7 201.7 156.1 298.7l63-106.7c-44.9-76.8-87-155.1-125.9-235.1" transform="matrix(.13333 0 0 -.13333 0 5333.333)"/><path style="fill:#d41341;fill-opacity:1;fill-rule:nonzero;stroke:none" d="M19056.6 12282.1c-45.8 14.4-91.7 28.6-137.7 42.5 155 169.8 318 332.1 486.4 488.2 528.5 487.9 1108.4 917.4 1719.9 1295.5 66.5 40.8 133.5 81 200.8 120.5 59.2-37 118.1-74.3 176.8-112.1-95.7-52.8-190.6-107-284.8-162.5-608.7-361.3-1188.6-774.8-1717.6-1245.8-153-136.8-301.6-278.6-443.8-426.3m2649.7 1944.3c-61.1 38.8-122.4 77.1-184.1 115 253.8 142.5 513.1 275.4 778.1 396.8l-18.1-230.8c-194.6-87.6-386.7-181.5-575.9-281" transform="matrix(.13333 0 0 -.13333 0 5333.333)"/><path style="fill:#7c5050;fill-opacity:1;fill-rule:nonzero;stroke:none" d="m22282.2 14507.4 18.1 230.8c250.6 114.8 506.1 219.2 766.7 311.8 273.8 96.4 553.5 178.9 839.2 240.2 62.6-67.2 124.4-135.2 185.1-203.9-322.2-54.4-640.9-139.1-953.6-242.9-290.2-97.2-575.6-210-855.5-336" transform="matrix(.13333 0 0 -.13333 0 5333.333)"/><path style="fill:#d41341;fill-opacity:1;fill-rule:nonzero;stroke:none" d="m24600 15143.7 49.9 249.6c68.4 3.7 137.1 5.7 205.9 5.7 55.4 0 111-1.3 166.6-4l-50.1-250.9c-59.6 3.3-119.4 4.8-179.3 4.8-64.2 0-128.5-1.8-193-5.2" transform="matrix(.13333 0 0 -.13333 0 5333.333)"/><path style="fill:#7c5050;fill-opacity:1;fill-rule:nonzero;stroke:none" d="M24376 15125.7c-64.2 73-129.3 145-195.4 216.1 154.7 24.8 311.5 42.8 469.3 51.5l-49.9-249.6c-74.6-3.9-149.4-10-224-18" transform="matrix(.13333 0 0 -.13333 0 5333.333)"/><path style="fill:#000072;fill-opacity:1;fill-rule:nonzero;stroke:none" d="M25187.2 15124.7c-71.2 9.1-142.9 15.5-214.9 19.4l50.1 250.9c65.7-3.1 131.4-8.2 197.3-15.5l-32.5-254.8" transform="matrix(.13333 0 0 -.13333 0 5333.333)"/><path style="fill:#b2999a;fill-opacity:1;fill-rule:nonzero;stroke:none" d="m19538.5 9212.4-50.1 84.8c32.6-7.5 65.2-15.5 97.7-23.7-16-20.3-31.9-40.7-47.6-61.1" transform="matrix(.13333 0 0 -.13333 0 5333.333)"/><path style="fill:#000072;fill-opacity:1;fill-rule:nonzero;stroke:none" d="m19430.1 9068.6-83.6 59.7c40.7 58.2 82.1 115.9 124.3 173 5.8-1.4 11.7-2.7 17.6-4.1l50.1-84.8c-36.7-47.5-72.8-95.5-108.4-143.8" transform="matrix(.13333 0 0 -.13333 0 5333.333)"/><path style="fill:#d41341;fill-opacity:1;fill-rule:nonzero;stroke:none" d="m19854.3 9596.5-64.5 109.2c183.1 217.7 377.3 426.2 580.9 625.1 272 265.4 561 514 866.2 742 50.2-33.3 100-67.1 149.5-101.4-322.6-225.3-629.3-474.5-918.3-742.9-215-199.9-420.3-410.8-613.8-632" transform="matrix(.13333 0 0 -.13333 0 5333.333)"/><path style="fill:#b2999a;fill-opacity:1;fill-rule:nonzero;stroke:none" d="M19667.2 9374.8c-40.2 9.5-80.6 18.4-121 26.9 78.8 103.2 160 204.5 243.6 304l64.5-109.2c-63.7-72.8-126.1-146.7-187.1-221.7" transform="matrix(.13333 0 0 -.13333 0 5333.333)"/><path style="fill:#d41341;fill-opacity:1;fill-rule:nonzero;stroke:none" d="M21554.7 11085.8c-52 35.3-104.4 69.9-157.1 104.1 66.5 47.3 133.9 93.6 201.9 138.9 147.9 98.1 299.4 191.6 454.3 279.3l-18.1-229.4c-114.5-63.9-227.4-131-338.5-200.9-47.8-30.1-95.3-60.8-142.5-92" transform="matrix(.13333 0 0 -.13333 0 5333.333)"/><path style="fill:#7c5050;fill-opacity:1;fill-rule:nonzero;stroke:none" d="m22035.7 11378.7 18.1 229.4c307 173.7 627.7 324.7 962 444.6 238.5 85.4 484.7 154.7 735.9 202.3 60.5-70.1 119.3-141.3 177.1-213.2-284.7-36.9-567.2-104.7-841.9-195.6-363.3-120.3-714.5-279.9-1051.2-467.5" transform="matrix(.13333 0 0 -.13333 0 5333.333)"/><path style="fill:#d41341;fill-opacity:1;fill-rule:nonzero;stroke:none" d="M24220.6 12068.5c-24.6 32.9-49.5 65.5-74.8 97.8-36.5 44.6-73.3 88.8-110.6 132.6 123.8 14.8 248.4 23.9 373.6 26.7l-50.5-252.6c-45.9-.6-91.8-2.2-137.7-4.5" transform="matrix(.13333 0 0 -.13333 0 5333.333)"/><path style="fill:#000072;fill-opacity:1;fill-rule:nonzero;stroke:none" d="M24587 12068.4c-60.8 3.3-121.6 4.9-182.6 4.9-15.3 0-30.7-.1-46.1-.3l50.5 252.6c27.6.7 55.2 1 82.9 1 35.5 0 71-.5 106.6-1.6l-11.3-256.6" transform="matrix(.13333 0 0 -.13333 0 5333.333)"/><path style="fill:#d41341;fill-opacity:1;fill-rule:nonzero;stroke:none" d="m20934.9 7766.8-69.9 118.3c158.4 205.1 333.7 397.5 523.2 575.2 30.5-19.8 60.9-39.9 91.1-60.2 14.3-9.6 28.6-19.3 42.8-29-212.9-183.4-410-385.6-587.2-604.3" transform="matrix(.13333 0 0 -.13333 0 5333.333)"/><path style="fill:#b2999a;fill-opacity:1;fill-rule:nonzero;stroke:none" d="m20636.4 7353.2-63.5 107.5c89.4 146.7 187 288.4 292.1 424.4l69.9-118.3c-107-132-206.8-270.1-298.5-413.6" transform="matrix(.13333 0 0 -.13333 0 5333.333)"/><path style="fill:#000072;fill-opacity:1;fill-rule:nonzero;stroke:none" d="m20530.8 7179.3-90 49.5c41.7 78.6 85.8 155.9 132.1 231.9l63.5-107.5c-36.5-57.1-71.7-115.1-105.6-173.9" transform="matrix(.13333 0 0 -.13333 0 5333.333)"/><path style="fill:#d41341;fill-opacity:1;fill-rule:nonzero;stroke:none" d="M21668.7 8492.3c-30.3 19.8-60.8 39.3-91.4 58.6-17.5 11-35 21.9-52.6 32.8 100.1 87.1 203.8 170.3 310.5 249.2l-17.8-227c-50.3-36.9-99.9-74.7-148.7-113.6" transform="matrix(.13333 0 0 -.13333 0 5333.333)"/><path style="fill:#7c5050;fill-opacity:1;fill-rule:nonzero;stroke:none" d="m21817.4 8605.9 17.8 227c40.9 30.3 82.2 59.8 124 88.8 315 219 654.6 403.5 1011.5 548.7 12.7 5.1 25.4 10.3 38 15.6 48.9-59.6 97-120 144.1-181.1-34.8-11.9-68.7-25.8-103.3-38.1-346.2-127.3-679.1-293.5-990.2-494.4-82.2-53-162.9-108.6-241.9-166.5" transform="matrix(.13333 0 0 -.13333 0 5333.333)"/><path style="fill:#d41341;fill-opacity:1;fill-rule:nonzero;stroke:none" d="m23450.8 9395 51.5 257.4c5.3 1.6 10.7 3.2 16.1 4.8 46.2 14.4 93.2 25.6 140.6 36l141.7 32.7c30.5 7.1 61.2 12.1 91.9 17.2l-52.3-261.4-128.5-25.1c-45.1-8.3-90.1-17.3-134.3-29.6-42.1-11-84.5-21.2-126.7-32" transform="matrix(.13333 0 0 -.13333 0 5333.333)"/><path style="fill:#7c5050;fill-opacity:1;fill-rule:nonzero;stroke:none" d="M23394.5 9380.1c-50.5 64.5-102 128.2-154.5 191.1l1.5.5c85.2 32 173.3 55.1 260.8 80.7l-51.5-257.4c-18.8-4.8-37.6-9.7-56.3-14.9" transform="matrix(.13333 0 0 -.13333 0 5333.333)"/><path style="fill:#000072;fill-opacity:1;fill-rule:nonzero;stroke:none" d="m23840.3 9481.7 52.3 261.4c16.8 2.7 33.7 5.5 50.5 8.6l140.3 23.5 39.1-253.9-139.3-18.5c-45.4-6.8-91.6-10.9-136.5-19.9l-6.4-1.2" transform="matrix(.13333 0 0 -.13333 0 5333.333)"/><path style="fill:#d41341;fill-opacity:1;fill-rule:nonzero;stroke:none" d="M24255.5 11558.5c-84.7 148.7-181.8 292.1-286 431.1l62.5 313c1.1-1.3 2.2-2.5 3.2-3.7 37.3-43.8 74.1-88 110.6-132.6 25.3-32.3 50.2-64.9 74.8-97.8 36.5-49 72.2-98.7 107-149.2l-72.1-360.8M22213 13628.9c-231.5 169.6-468.6 332.1-710.2 487.8-58.7 37.8-117.6 75.1-176.8 112.1-371.3 232.1-752.9 448.7-1141.5 651.2-454.7 236.6-920.2 453.5-1395.2 647.1-49.7 20.3-99.6 40.3-149.5 60.1-321.5 127.1-647.2 243.6-976.8 348.1-519.1 164.2-1048.6 301.3-1584.9 396.3-40.5 7.2-81 14.1-121.6 20.8-33.7 5.5-67.6 10.9-101.4 16.1l-74.5 126.2c81.5-10.6 162.8-22.2 244.1-34.9 41.5-6.4 83.1-13.1 124.5-20.1 526.1-88.2 1045.6-215.9 1555.7-369.5 359.1-108.4 713.9-230.7 1063.9-365.5 51.7-19.9 103.2-40 154.6-60.5 456.3-181.2 904.2-383.6 1343-604.1 427.6-215.4 847.4-447.4 1255.8-698.7 61.7-37.9 123-76.2 184.1-115 177.8-112.9 353.3-229.5 526.1-350.1l-19.4-247.4" transform="matrix(.13333 0 0 -.13333 0 5333.333)"/><path style="fill:#b2999a;fill-opacity:1;fill-rule:nonzero;stroke:none" d="M15855.1 16368.5c-194.3 30-389.4 54.2-585.2 72l-66 111.8c192.8-13.1 385.2-32.6 576.7-57.6l74.5-126.2" transform="matrix(.13333 0 0 -.13333 0 5333.333)"/><path style="fill:#7c5050;fill-opacity:1;fill-rule:nonzero;stroke:none" d="M23969.5 11989.6c-6.1 8.1-12.2 16.1-18.3 24.2-7.4 9.3-14.9 18.7-22.4 28-57.8 71.9-116.6 143.1-177.1 213.2-78.5 90.8-159.6 179.6-244.6 265.2-314.5 323.5-658.2 621.4-1017 900-91.4 70.7-183.8 140.3-277.1 208.7l19.4 247.4c131.7-91.9 261.8-186.1 390.3-282.6 369.2-278.5 724.5-577.5 1053.8-906.9 124.3-121.8 241.9-250.9 355.5-384.2l-62.5-313" transform="matrix(.13333 0 0 -.13333 0 5333.333)"/><path style="fill:#000072;fill-opacity:1;fill-rule:nonzero;stroke:none" d="M24311 11456.9c-17.9 34.2-36.4 68-55.5 101.6l72.1 360.8c76-110.5 147.2-225 211.7-344.7l-228.3-117.7m-9041.1 4983.6c-94.5 8.6-189.1 15.6-283.9 21.1l5 102.7c71-3.2 142-7.1 212.9-12l66-111.8" transform="matrix(.13333 0 0 -.13333 0 5333.333)"/><path style="fill:#d41341;fill-opacity:1;fill-rule:nonzero;stroke:none" d="M23656.3 8561.2c-89 151-183.7 298.8-283.6 443l64.2 321.2c101.4-132 198.5-267.4 291-406.1l-71.6-358.1m-1687.5 1967.7c-187.4 155.8-381.8 303.4-582.4 442.5-49.5 34.3-99.3 68.1-149.5 101.4-78.3 52-157.5 102.6-237.4 152.1-640.5 395.8-1329.9 710-2046.7 947-43.9 14.5-88 28.8-132.1 42.7-203.3 64.3-408.6 122.4-615.5 174.5l-84.6 143.2c268.5-59.2 534.8-128.3 798.3-207.7 46-13.9 91.9-28.1 137.7-42.5 65.3-20.7 130.4-42 195.3-63.9 638.9-216 1258.3-494.7 1840.7-839.5 102.8-60.8 204.5-123.8 305-188.8 52.7-34.2 105.1-68.8 157.1-104.1 147.5-100.1 292.1-204.7 433.3-313.8l-19.2-243.1" transform="matrix(.13333 0 0 -.13333 0 5333.333)"/><path style="fill:#b2999a;fill-opacity:1;fill-rule:nonzero;stroke:none" d="M18205.2 12389.1c-206.7 52-415 98-624.3 138.1l-72.3 122.4c204.9-33.5 409.1-72.5 612-117.3l84.6-143.2" transform="matrix(.13333 0 0 -.13333 0 5333.333)"/><path style="fill:#7c5050;fill-opacity:1;fill-rule:nonzero;stroke:none" d="M23372.7 9004.2c-70.8 102.1-144.1 202.3-219.9 300.7-47.1 61.1-95.2 121.5-144.1 181.1-144.5 175.8-297.1 345.2-457.1 507.6-185 187.9-379.7 366.5-582.8 535.3l19.2 243.1c250.7-193.8 490.8-401.8 717.9-623.8 187.4-183.1 365.8-375.7 534.1-577 52.5-62.9 104-126.6 154.5-191.1 14.2-18.2 28.4-36.4 42.4-54.7l-64.2-321.2" transform="matrix(.13333 0 0 -.13333 0 5333.333)"/><path style="fill:#000072;fill-opacity:1;fill-rule:nonzero;stroke:none" d="M23738.4 8418.2c-26.8 48-54.2 95.6-82.1 143l71.6 358.1c81.5-122.2 159.5-246.9 233.7-373.9l-223.2-127.2m-6157.5 4109c-102.6 19.7-205.6 38-308.7 54.8l15.4 101.6c73.8-10.6 147.4-21.9 221-34l72.3-122.4" transform="matrix(.13333 0 0 -.13333 0 5333.333)"/><path style="fill:#d41341;fill-opacity:1;fill-rule:nonzero;stroke:none" d="M23166.3 6744.7c-63.5 99.6-131.7 196.8-203.8 291.4 25.4 72 46.2 147.5 62 226.5l11.9 59.7c94.5-108.3 184.6-220.8 269.3-338.1-39.3-88-86.4-167.7-139.4-239.5m-1382.2 1438.7a7212.9 7212.9 0 0 1-262 187.7c-14.2 9.7-28.5 19.4-42.8 29-30.2 20.3-60.6 40.4-91.1 60.2-327.9 213-673.6 399.7-1034.1 552.2-67.1 28.3-134.8 55.5-203 81.4l-104.1 176.2c121.4-38.2 241.4-80.6 360-126.6 388.9-151.1 762.5-340.5 1117.7-559.8 17.6-10.9 35.1-21.8 52.6-32.8 30.6-19.3 61.1-38.8 91.4-58.6 44.5-29 88.8-58.4 132.8-88.4l-17.4-220.5" transform="matrix(.13333 0 0 -.13333 0 5333.333)"/><path style="fill:#b2999a;fill-opacity:1;fill-rule:nonzero;stroke:none" d="M20151.1 9093.9c-184.9 70.1-373.5 130.8-565 179.6-32.5 8.2-65.1 16.2-97.7 23.7l-77.1 130.5c45.1-8 90-16.7 134.9-26 40.4-8.5 80.8-17.4 121-26.9 127.9-30 254.6-65.1 379.8-104.7l104.1-176.2" transform="matrix(.13333 0 0 -.13333 0 5333.333)"/><path style="fill:#7c5050;fill-opacity:1;fill-rule:nonzero;stroke:none" d="M22962.5 7036.1c-149.7 196.3-316.3 381.9-492.8 557-214.1 211.8-443.8 408.7-685.6 590.3l17.4 220.5c288.3-196.7 563.1-414.3 819.6-653.4 144.7-135.5 284.2-277.8 415.3-428.2l-11.9-59.7c-15.8-79-36.6-154.5-62-226.5" transform="matrix(.13333 0 0 -.13333 0 5333.333)"/><path style="fill:#000072;fill-opacity:1;fill-rule:nonzero;stroke:none" d="M23252.1 6603.3c-27.5 47.7-56.2 94.8-85.8 141.4 53 71.8 100.1 151.5 139.4 239.5 58.8-81.3 114.9-164.9 168.1-251l-221.7-129.9m-3763.7 2693.9c-5.9 1.4-11.8 2.7-17.6 4.1-114.7 26.1-230.3 47.8-346.8 64.6l13.2 101.9c91.8-10.5 183.2-23.9 274.1-40.1l77.1-130.5" transform="matrix(.13333 0 0 -.13333 0 5333.333)"/><path style="fill:#d41341;fill-opacity:1;fill-rule:nonzero;stroke:none" d="M24784.1 14203c-93.7 135.7-191.3 268.9-292.3 399.5l62.8 314.2c102.1-122.8 201.1-248.2 297-376.1l-67.5-337.6m-2337 2399.2c-313.5 238.7-638.2 463.2-971.8 674-64.4 40.8-129.1 81-194.2 120.7-216.1 131.9-435.8 258.3-658.3 379.3-465.8 253.1-944.5 482.8-1433 690.1 49.7 37 94.1 76 133.5 116.7 470.7-194.9 933-410.6 1384.4-648.3 264.2-139.2 524.8-285.9 780.7-440.5 67.7-40.9 135-82.3 202-124.3 264.3-165.5 523.3-339.8 776-523.1l-19.3-244.6m-5721.4 2705c-438.5 116.1-881.3 216.6-1327.1 301.7 47.2 27.7 94.4 55 142.1 82.2 393-72.2 784-156.4 1172.1-252.7 4.7-43.1 9-86.8 12.9-131.2" transform="matrix(.13333 0 0 -.13333 0 5333.333)"/><path style="fill:#7c5050;fill-opacity:1;fill-rule:nonzero;stroke:none" d="M24491.8 14602.5c-128.1 165.5-261.7 326.7-400.5 483.8-60.7 68.7-122.5 136.7-185.1 203.9-281.4 301.8-581.3 587.3-895 856.5-183.5 157.3-371.7 309.1-564.1 455.5l19.3 244.6c234.3-169.9 463.2-347.6 685.8-533.4 361.4-301.9 706.5-625.7 1028.4-971.6 66.1-71.1 131.2-143.1 195.4-216.1 60.4-68.8 120-138.6 178.6-209l-62.8-314.2" transform="matrix(.13333 0 0 -.13333 0 5333.333)"/><path style="fill:#000072;fill-opacity:1;fill-rule:nonzero;stroke:none" d="M15398.6 19608.9c-83.1 15.8-166.3 31.2-249.6 45.9l17.2 101.4c125-20.5 249.8-42.2 374.5-65.1-47.7-27.2-94.9-54.5-142.1-82.2m9521.8-5609.3c-44.5 68.4-89.9 136.2-136.3 203.4l67.5 337.6c98-130.7 192.6-264.1 283.7-400.2l-214.9-140.8" transform="matrix(.13333 0 0 -.13333 0 5333.333)"/><path style="fill:#d41341;fill-opacity:1;fill-rule:nonzero;stroke:none" d="M25372.1 17144.1c-94.4 137-191.5 272.4-291.1 405.8l61.8 309c101.1-124.7 199.9-251.4 296.3-379.6l-67-335.2M22709 19926.5c-208.6 153-422.7 298.6-641.9 436.4-64.9 40.9-130.2 81-195.9 120.5 24.3 20.3 48 42 71 65.1 21.8-1 44.4-1.5 67.8-1.5 7.5 0 15.1 0 22.8.1 36.1-21 72.1-42.2 108.1-63.6 197.9-118.1 392.3-242.3 582.6-372.7l-14.5-184.3" transform="matrix(.13333 0 0 -.13333 0 5333.333)"/><path style="fill:#7c5050;fill-opacity:1;fill-rule:nonzero;stroke:none" d="M25081 17549.9c-122.5 164.1-248.9 325.4-379.3 483.4-64.9 78.6-130.8 156.4-197.6 233.4-354.4 408-736.4 791.8-1147 1144.4-209.2 180-425.5 351.9-648.1 515.4l14.5 184.3c257.5-176.4 507.6-363.9 749.2-562 472.9-386.8 911.6-814.3 1316.5-1272.2 71.7-81 142.3-163 211.9-245.8 47.7-56.9 94.9-114.2 141.7-171.9l-61.8-309M22010 20547c-23.4 0-46 .5-67.8 1.5 10.6 10.7 21 21.6 31.3 32.9 19.8-11.4 39.5-22.8 59.3-34.3-7.7-.1-15.3-.1-22.8-.1" transform="matrix(.13333 0 0 -.13333 0 5333.333)"/><path style="fill:#000072;fill-opacity:1;fill-rule:nonzero;stroke:none" d="M25463.6 17009.8c-30.3 45-60.7 89.7-91.5 134.3l67 335.2c80.3-106.9 159-214.8 236.1-323.9l-211.6-145.6" transform="matrix(.13333 0 0 -.13333 0 5333.333)"/><path style="fill:#d41341;fill-opacity:1;fill-rule:nonzero;stroke:none" d="m25966.9 20119.8-25.1 59.3-43.9 84.2-86.7 169.4-99.8 162.6-16.5 25.5 60.9 304.2c51.9-64.5 102.1-130.7 150.6-198.1l115.5-167.6 24.5-42.1-79.5-397.4" transform="matrix(.13333 0 0 -.13333 0 5333.333)"/><path style="fill:#7c5050;fill-opacity:1;fill-rule:nonzero;stroke:none" d="M25694.9 20620.8c-133.4 205-284.3 401-455.5 579.5-26.6 28.2-53.4 56.1-80.6 83.7-82.5 83.8-168.1 164.8-256.6 242.7-76.4 67.3-154.9 132.3-235.5 194.9-94.2 73-191.2 143.9-290.5 211.1 57.3.5 114.5.7 171.8.7 24.4 0 48.5 0 73-.1 45.3-29.3 90.3-59.3 135-89.9 141.7-98.4 278.6-204.2 410.1-316.7 71.8-61.5 142-125 210.5-190.5 22.3-20.9 44.3-42.1 66.1-63.6 110.8-109.2 215-225.6 313.1-347.6l-60.9-304.2" transform="matrix(.13333 0 0 -.13333 0 5333.333)"/><path style="fill:#000072;fill-opacity:1;fill-rule:nonzero;stroke:none" d="M24376.2 21932.7c-115.9 78.4-234.9 151.8-356.5 217.5l43.6 93.1c194.9-90.5 379.3-194.8 557.7-310-24.5.1-48.6.1-73 .1-57.3 0-114.5-.2-171.8-.7m1681.2-2013.3c-27.7 56.9-53.3 114.6-78.6 172.5l-11.9 27.9 79.5 397.4 78.2-134.3 50.1-89.1 42.3-93.2c27.6-62.5 54.9-125.1 80-188.5l-239.6-92.7" transform="matrix(.13333 0 0 -.13333 0 5333.333)"/><path style="fill:#d41341;fill-opacity:1;fill-rule:nonzero;stroke:none" d="M24112.2 30012.3c-1179.1 696.8-2747.8 513.9-2747.8 513.9-3357.2-254.4-6088.6-1952.5-6088.6-1952.5-552.8 1437.1 88.4 2647.6 1308.7 3188.2 1735.6 856.5 2059.3 2069.5 891.4 2353.2 62.7 17.4 125.9 33.9 189.1 48.8 2539.8 604.7 5519.3-852.9 4340.6-3478 835.5-60.1 1564.6-302.1 2106.6-673.6" transform="matrix(.13333 0 0 -.13333 0 5333.333)"/><path style="fill:#d41341;fill-opacity:1;fill-rule:nonzero;stroke:none" d="M26738.3 23658.6c-1345.2 289.8-2757.1 290.9-4220.9 69.4-51.9-11.3-100.7-23.1-146.4-36.5-997.9-281.6-483.5-956.7-299.1-1848.6 48.8-236.4 46.8-482-24.6-712.2-311.4-1009.1-1540.9-804.1-1540.9 101.2 0 1166.4-504.1 1620.1-1097.5 1696.1-457.3 58.6-906.9-132.6-1215.7-474.7-876.5-971.1-473.7-2087.1 283.6-2951.9 322.2-367.8 276.5-943.3-116.6-1234.6-493.3-366.4-1313.8-153.7-1423.2 976.2-29.8 404.9-91 716.2-154.2 945.4-108.9 393.6-353 741.4-700.8 956.2-1011.2 624.3-1964.8-380.2-2929.2-1077.5-1510.1 946.5-831.9 3252.4 379.7 4282.1-825.2 1479.7-19 3361.3 1683.7 4195.7 38.6 18.5 59.6 28.8 59.6 28.8s2731.4 1698.1 6088.6 1952.5c0 0 1568.7 182.9 2747.8-513.9 81.2-55.5 158.8-114 231.2-175.2 477.9-403.3 762.5-924.8 777.9-1514.1 8.8-313-59-644.9-213.7-988.1 28.8 0 57.5-.5 86.8-2 1427.4-71.5 2997.6-1882.6 1743.9-3674.3" transform="matrix(.13333 0 0 -.13333 0 5333.333)"/><path style="fill:#d41341;fill-opacity:1;fill-rule:nonzero;stroke:none" d="M24994.4 27332.9c-2-8.3-4.6-16.5-7.2-24.7l-975.7 25.7c-3491.3 102.7-7080.2-641.2-10479-2984.7-825.2 1479.7-19 3361.3 1683.7 4195.7 38.6 18.5 59.6 28.8 59.6 28.8s2731.4 1698.1 6088.6 1952.5c0 0 1568.7 182.9 2747.8-513.9 53.5-31.8 106.4-64.7 157.8-100.2 25.1-25.1 49.8-49.8 73.4-75 481-499.9 736.8-971.1 777.9-1514.1 23.2-301.7-19.5-625.9-126.9-990.1" transform="matrix(.13333 0 0 -.13333 0 5333.333)"/><path style="fill:#ffb5e8;fill-opacity:1;fill-rule:nonzero;stroke:none" d="M17872.7 18307.5c-79.7 0-159.3 16.5-234.6 49.9-275.4 122.3-451.8 443.9-496 900.9-27 363.2-81.3 694.4-161.3 984.5-125.9 457-406.7 839.3-790.8 1076.5-5.6 3.5-11.3 6.9-17 10.3 165-22.8 331.1-81.5 498.8-185 347.9-214.8 591.9-562.6 700.9-956.2 63.2-229.2 124.3-540.5 154.1-945.4 43.5-448.3 198.8-752.3 401.2-932.9-18.4-1.7-36.9-2.6-55.3-2.6m-2475.6 10544.9c-353.4 1163 129.9 2216.4 1270.5 2721.7 2.6 1.2 5.2 2.3 7.7 3.6 1114.7 549.9 1762.8 1292.7 1691.6 1938.5-15.3 139.2-74.7 345.2-272.3 521.8 51.3 7.8 102.6 14.7 154 20.7 943.9-362.5 563.5-1488.4-1074.4-2296.7-1088.1-482.4-1715.8-1497.4-1447-2730.9-110.5-57.8-220.3-116.8-330.1-178.7m-2248.9-8533.7c-487.5 361.6-625 868.3-652 1241.9-64.7 894.3 427 2001.1 1169.2 2631.7 21.5 18.3 38.4 40.2 50.5 64.2 507.1 343.7 1031.6 661.5 1571.7 949.5-22.4-86.6-41-175.2-56.1-264.8-239.2-130.9-476.8-266.2-712.7-405.9-623.2-368.9-1129.9-912.5-1424.8-1574.3-308.9-693.6-438.4-1602.5 229.8-2509.1-58.4-44.9-117.1-89.6-175.6-133.2m3633.2 5399.7c21.8 81.8 44.6 155 65.9 217.4 563.9 228.5 1140.7 425.2 1726.8 589 218.4 67.3 442.1 115.3 663.8 170.8 86.7 23 174.2 42.7 262 61-902.6-277.5-1815.3-625.6-2718.5-1038.2m-3159.2-1091.5c-246.9 546.6-276.9 1169.7-81.9 1775.8 272 844.9 936.4 1568.5 1823 1985.2 38.9 18.3 69.6 47.4 89.9 82.1 196.5 114.7 404.2 225.1 610.4 329.9 45.8 22.8 91.6 45.5 137.5 68-52.5-84.1-98.5-170.1-138.4-257.5-162.5-83.4-326.4-168.7-491.7-255.8-503.4-265-940.6-644.8-1259.1-1116.2-378.9-560.7-689.2-1378.1-387-2413.8-101.6-64.8-202.5-130.8-302.7-197.7m4383.6 4908.9c24 35.1 49.1 69.9 75.1 104.1 63.9 21.1 128.1 41.5 192.1 62.5 250.7 87.5 504.8 163.3 757.8 244.6l139.2 38.5c-367.4-123.3-756.8-275-1164.2-449.7m3235.2-8871.3c-27.4 0-54.1 2-79.8 5.9-207.2 31.3-449.3 197.1-449.3 561.6 0 976.1-334.1 1458.5-699.1 1694.1 587.3-81.4 1083.4-537.1 1083.4-1694.2 0-239.7 86.4-430.4 219.1-562.4-25.2-3.4-50-5-74.3-5" transform="matrix(.13333 0 0 -.13333 0 5333.333)"/><path style="fill:#000072;fill-opacity:1;fill-rule:nonzero;stroke:none" d="M15425.9 21545.8c250.4 0 505.4-66.7 764.1-226.5 384.1-237.2 664.9-619.5 790.8-1076.5 80-290.1 134.3-621.3 161.3-984.5 44.2-457 220.6-778.6 496-900.9 195.8-87 420.1-59.2 599.8 74.2 138 102.5 224.4 255.5 243.1 430.9 19.6 182.4-38.4 366-158.8 503.5-999 1140.9-1101.6 2316.4-281.5 3225.1 364.5 403.8 885.7 606 1394.1 540.8 477-61.1 1277.1-389.2 1277.1-1899.9 0-364.5 242.1-530.3 449.3-561.6 233.4-35.3 553.8 80.2 689.9 521.1 57.1 185.1 64 395.9 19.7 609.6-38.9 188.5-93.6 367.7-146.6 541-125.9 412.7-245 802.6-56.7 1123.2 133 226.4 389.3 373.7 806.3 463.6 4.2.9 8.4 1.7 12.6 2.3 1489.5 225.6 2887.4 211 4157.5-43.2 415.2 660.1 458.7 1374.9 119.7 2026-366.7 704.2-1147.2 1215.4-1856 1215.4-69.7 0-134.7 35.4-172.6 93.9-37.9 58.6-43.4 132.4-14.8 196 276.5 613.6 260.3 1210-46.8 1724.9-446.3 748.2-1449.1 1248-2682.5 1336.8-67 4.8-127.3 42-161.7 99.6-34.4 57.6-38.6 128.3-11.1 189.6 390.1 868.6 317 1651.5-211.3 2264.2-705.3 817.9-2142.5 1210.3-3512.2 1003.6 197.6-176.6 257-382.6 272.3-521.8 71.2-645.8-576.9-1388.6-1691.6-1938.5-2.5-1.3-5.1-2.4-7.7-3.6-1207.2-534.8-1678.2-1683.4-1200-2926.4 38.8-100.6-6.8-214-104.3-259.8-886.6-416.7-1551-1140.3-1823-1985.2-216.6-673-155.7-1366.8 171.5-1953.7 47.8-85.6 28.4-193.2-46.4-256.7-742.2-630.6-1233.9-1737.4-1169.2-2631.7 27-373.6 164.5-880.3 652-1241.9 113 84.3 226.8 172.5 337.7 258.5 595.8 461.7 1250 968.6 1940 968.6m2444.5-3648.2c-136.1 0-272 27.7-399.1 84.1-241.4 107.2-658.4 411.1-738.8 1241.5-25.4 341.2-75.1 645.9-148 910.4-98.2 356.6-315 653.5-610.5 836-729.4 450.5-1461.4-116.8-2236.3-717.3-151.7-117.6-308.5-239.2-464.5-351.9-67.9-49.1-158.6-52.1-229.5-7.6-575 360.3-906 926.8-957.5 1638.1-70.9 980.6 413.7 2134.7 1190.3 2864.9-315.6 654.4-361.6 1405.3-127.4 2132.8 289.1 898.6 966.5 1672.9 1872.2 2148.2-219.1 674.7-200.5 1331.8 56 1910.6 263.5 594.5 754.5 1065 1419.9 1360.8 1067.2 527.4 1502.9 1144.7 1461.2 1522.9-29.6 267.7-305 389.4-530.9 444.3-90.8 22.1-155.2 102.6-156.9 196-1.7 93.5 59.9 176.2 149.8 201.5 1691 476.1 3582.6 51.2 4497.7-1010.1 576.1-668.1 707.6-1525.8 380.8-2438.9 1240.4-151.8 2247.9-705.1 2727.5-1509.2 333.1-558.4 391.7-1188.3 174-1836.1 773.2-113.9 1536.7-663.8 1927.7-1414.7 432.6-830.7 353.8-1741-221.6-2563.2-47.4-67.7-131-100.5-211.7-83.1-1255.7 270.5-2648.8 293.4-4140.4 68.2-285.1-62.2-464.2-152.6-532.5-268.7-96.9-165-7.7-457 95.5-795 53-173.8 113.1-370.7 155.9-577.8 58.3-281.3 48.1-562.8-29.4-814-199.5-646.1-718.2-870.5-1143.9-806.4-470.5 71-799.2 469.1-799.2 968.1 0 627-159.3 1394.9-918.2 1492.2-374.8 48-762.5-104.7-1036.7-408.5-909.9-1008.1-211.7-2111.1 285.6-2678.9 195.8-223.6 290-521.8 258.3-818-31.2-290.9-175.7-545.6-406.9-717.2-181.3-134.6-397.1-204-612.5-204" transform="matrix(.13333 0 0 -.13333 0 5333.333)"/><path style="fill:#d41341;fill-opacity:1;fill-rule:nonzero;stroke:none" d="M16307.5 26099c-442 686.7-631.5 1664.6-244.8 2511.4 678.8 348.5 1331.3 663 1943.1 925.4-500.4-731.4-569-1643.7-26-2812.1-568.1-178-1126.6-386.7-1672.3-624.7" transform="matrix(.13333 0 0 -.13333 0 5333.333)"/><path style="fill:#ffcbef;fill-opacity:1;fill-rule:nonzero;stroke:none" d="M16062.7 28610.4c39.9 87.4 85.9 173.4 138.4 257.5 73.2 35.9 146.6 71.5 220.1 106.6 120.9 55 240.8 112 362.4 165.3l366.2 156.7 370.9 145.4c124.2 46.9 250.2 88.9 375.1 133.7 61.2 22.8 123 43.9 185.1 64.3-26-34.2-51.1-69-75.1-104.1-611.8-262.4-1264.3-576.9-1943.1-925.4" transform="matrix(.13333 0 0 -.13333 0 5333.333)"/><path style="fill:#d41341;fill-opacity:1;fill-rule:nonzero;stroke:none" d="M16652.1 29474.7c-3.8 874.3 634.2 1470.8 1162.3 1470.8 332.3 0 621.1-236.2 679.1-788.1-112.9-30.8-225.1-63.7-335.9-101.3-259.6-80.7-513.1-178.9-767-275.2l-377.9-151.9-360.6-154.3m-664.2-6549c-89.9 0-180.9 22.2-272.8 64.3-278.3 127.5-464.6 399.2-502.5 703-46.9 376.5-52.8 824 18.9 1248.2 511.1 279.7 1029 539.2 1549.9 777.2-92.4-346.5-166.6-846.6-28.2-1332.8 122.7-430.9 26.6-901.7-284.5-1224-156.3-162-316.8-235.9-480.8-235.9" transform="matrix(.13333 0 0 -.13333 0 5333.333)"/><path style="fill:#ffcbef;fill-opacity:1;fill-rule:nonzero;stroke:none" d="M15231.5 24941.2c15.1 89.6 33.7 178.2 56.1 264.8 237.4 126.6 477.8 247.4 721 362.2 276.1 130.4 555.8 253 838.7 367.6-21.3-62.4-44.1-135.6-65.9-217.4-520.9-238-1038.8-497.5-1549.9-777.2" transform="matrix(.13333 0 0 -.13333 0 5333.333)"/><path style="fill:#000072;fill-opacity:1;fill-rule:nonzero;stroke:none" d="M17549 21706.3c75.6 270.3 174.4 535.1 303.6 786.5 129 251.1 289.3 489.1 486.3 695.5 196.3 206.4 430.7 378.7 688.3 497.5 257.5 119.8 534.9 185.4 811.5 208.8 48.5 4.2 91.1-31.8 95.2-80.3 3.9-46.2-28.5-87.1-73.6-94.4l-2.2-.3c-256.2-41-503.4-119.9-724.7-243.3-221.5-122.7-415.4-288.8-575.2-483.3-160.2-194.5-287.4-416.1-386.8-650.2-99.5-234.2-171.8-481.1-222.7-732.2l-.1-.5c-22.5-111.3-131-183.3-242.4-160.8-111.3 22.6-183.3 131.1-160.7 242.4.9 4.8 2.2 10 3.5 14.6M13430.2 24497c769.6 528 1580.1 997.8 2424.8 1396.4 844.4 399 1722.8 726.5 2622.3 977.8 223.4 68.6 451.8 117.9 678.3 174.5 113.3 27.9 226.6 56 341.4 77.3l343 70.8 171.4 35.8c57.3 10.9 115 19.9 172.4 30l345.5 57.1c57.7 9.1 115.1 19.6 173 27l174 18.9c116 12.8 232 25.4 348.2 35.9 929.6 79.8 1863.7 88 2789.3 12.3 42.5-3.4 74.1-40.7 70.6-83.2-3.2-39.6-36.3-69.7-75.1-70.8-921.6-22.7-1838.8-80.8-2745.7-207.8-225.9-36.9-453.6-59.3-678.7-99.6l-338.7-53.2c-56.4-8.8-113.1-16.6-169.4-26.3l-168.2-32.6c-223.9-45.6-449.7-83.1-670.7-141.7-221.7-55.5-445.4-103.5-663.8-170.8-880.2-245.9-1739.2-566.2-2565.5-956.6-826.5-390-1619.9-849.8-2374.2-1367.3l-.7-.5c-81.9-56.2-193.8-35.3-250 46.6-56.2 81.9-35.4 193.8 46.5 250m1750.7 4229.6c240.1 144.3 477.1 270.3 720.5 394.3 121.6 60.7 243.7 120.3 366.3 178.9 123.5 56.2 246.2 114.5 370.6 169l374.4 160.2 377.9 151.9c253.9 96.3 507.4 194.5 767 275.2 257.4 87.5 522.8 149.2 785.2 218.8l398.3 87c66.5 13.9 132.6 29.2 199.3 41.9l200.9 34.2c534.2 98.6 1077.1 143.1 1617.4 164.8 42.5 1.7 78.4-31.4 80.1-73.9 1.6-39.4-26.7-73.1-64.7-79.2l-3.8-.6c-132.1-21.4-264.1-41.6-395.8-61.2l-197.6-29.8c-65.6-11.3-130.7-26-196.2-38l-391.8-75.8c-129.9-28.8-258.9-62-388.2-92.5l-193.9-45.4c-64.3-16.5-128.1-35.5-192.2-53l-383.8-106.4c-253-81.3-507.1-157.1-757.8-244.6-126-41.4-252.8-80.4-377.2-126.8-124.9-44.8-250.9-86.8-375.1-133.7l-370.9-145.4-366.2-156.7c-121.6-53.3-241.5-110.3-362.4-165.3-119.7-57.2-238.9-115.4-357.6-174.6-235.3-119.6-472.6-246.4-692.8-378.7l-4.7-2.8c-85.1-51.2-195.6-23.6-246.7 61.5-51.2 85.1-23.6 195.6 61.5 246.7" transform="matrix(.13333 0 0 -.13333 0 5333.333)"/><path style="fill:#a186d4;fill-opacity:1;fill-rule:nonzero;stroke:none" d="M21438.5 30533c80.1 6.4 221.2 14.8 403.7 14.8-182.5 0-323.6-8.4-403.7-14.8m414.9 14.8h-11.1 11.1" transform="matrix(.13333 0 0 -.13333 0 5333.333)"/><path style="fill:#d41341;fill-opacity:1;fill-rule:nonzero;stroke:none" d="M20094 30495.4c881.2 1798.8-246.7 3283-1746.5 3574 159.1 15.5 318.2 23 476.5 23 475.3 0 941.6-68.5 1365.6-198.3 1208.2-564.8 1915-1691.5 1233.9-3208.2 129.6-9.3 256.6-23 380.7-40.8 4.6-22.5 12.9-44.3 25-64.5 7-11.8 15.2-22.8 24.2-32.8h-11.2c-182.5 0-323.6-8.4-403.7-14.8-3.7 39.5-36.9 69.9-76.6 69.9-1.1 0-2.2-.1-3.2-.1-421.8-17-845.2-47.8-1264.7-107.4m6238.9-6550.4c-579.7 96.8-1184.4 145.2-1811.3 145.2-625.3 0-1272.6-48.2-1938.3-144.6 786.9 1121.8 96.9 2694.4-997.7 3145.6 801.7 98 1611 145.6 2423.7 165.6 38.8 1.1 71.9 31.2 75.1 70.8.2 1.5.2 2.9.3 4.4l473.5-12.5c49.3-6.5 98.7-14.9 148-25.3 5-24.8 14.6-48.9 28.8-70.9 37.9-58.5 102.9-93.9 172.6-93.9 124 0 250-15.6 375.8-45.2 1009.2-527.4 1762.1-1813 1049.5-3139.2" transform="matrix(.13333 0 0 -.13333 0 5333.333)"/><path style="fill:#d41341;fill-opacity:1;fill-rule:nonzero;stroke:none" d="M20005.7 27228.4c932.7 985 401.4 2441.1-502.8 2849.7 34.6 9.8 69.2 19.4 103.9 28.3l193.9 45.4c129.3 30.5 258.3 63.7 388.2 92.5l391.8 75.8c65.5 12 130.6 26.7 196.2 38l197.6 29.8c131.7 19.6 263.7 39.8 395.8 61.2l3.8.6c38 6.1 66.3 39.8 64.7 79.2-.1 1.4-.2 2.7-.3 4.1 80.1 6.4 221.3 14.8 403.8 14.8h11.1c35.2-38.7 84.3-63 137.5-66.8 369.1-26.6 717.5-90 1036.6-185.8 1245.5-571 1872.1-1686 1298-2960.3 77.1 0 154.8-5.2 232.7-15.4l-473.5 12.5c1 40.6-29.8 75.5-70.9 78.8-432.3 35.4-866.5 52.4-1301.2 52.4-496 0-992.7-22.2-1488.1-64.7-116.2-10.5-232.2-23.1-348.2-35.9l-174-18.9c-57.9-7.4-115.3-17.9-173-27l-345.5-57.1c-57.4-10.1-115.1-19.1-172.4-30l-5.7-1.2" transform="matrix(.13333 0 0 -.13333 0 5333.333)"/><path style="fill:#000072;fill-opacity:1;fill-rule:nonzero;stroke:none" d="M22371 23691.5a2149 2149 0 0 1 98.6 107.4c40.9 47.9 78.7 96.8 113.7 146.7 665.7 96.4 1313 144.6 1938.3 144.6 626.9 0 1231.6-48.4 1811.3-145.2-34-63.2-71.2-126.4-112-189.8-553.3 88.5-1117.1 130.7-1691 130.7-99.2 0-198.6-1.3-298.5-3.8-562.6-13.8-1133.9-66.2-1714-154.1-51.9-11.3-100.7-23.1-146.4-36.5m2912.4 3392.7c-125.8 29.6-251.8 45.2-375.8 45.2-69.7 0-134.7 35.4-172.6 93.9-14.2 22-23.8 46.1-28.8 70.9 196-41.2 391-112.7 577.2-210m-2255.9 3211c-319.1 95.8-667.5 159.2-1036.6 185.8-53.2 3.8-102.3 28.1-137.5 66.8-9 10-17.2 21-24.2 32.8-12.1 20.2-20.4 42-25 64.5 450.2-64.8 862.7-184.6 1223.3-349.9m-2837.9 3598.9c-424 129.8-890.3 198.3-1365.6 198.3-158.3 0-317.4-7.5-476.5-23-175.3 34-355.6 51.7-538.5 51.7-61.3 0-122.8-2-184.6-6 0 0 13.9 16.9 40.6 48.8 288.3 68.3 582.2 111 875 127.9h1.6c592-33.7 1160.8-170 1648-397.7m-449.3-6902.4c58.5 44.2 113.5 89.9 164.4 137.2 35.4 32.6 69.1 65.8 101 99.5l5.7 1.2c57.3 10.9 115 19.9 172.4 30l345.5 57.1c57.7 9.1 115.1 19.6 173 27l174 18.9c116 12.8 232 25.4 348.2 35.9 495.4 42.5 992.1 64.7 1488.1 64.7 434.7 0 868.9-17 1301.2-52.4 41.1-3.3 71.9-38.2 70.9-78.8-.1-1.5-.1-2.9-.3-4.4-3.2-39.6-36.3-69.7-75.1-70.8-812.7-20-1622-67.6-2423.7-165.6-195.8 80.7-404.4 125.5-619.9 125.5l-225.1-41.1-1000.3-183.9m-237.4 3086.4c-63.9 28.9-129.6 52.5-196.8 70.4l678.7 140.8c39.4 69.1 75.7 137.8 109.2 206.1 419.5 59.6 842.9 90.4 1264.7 107.4 1 0 2.1.1 3.2.1 39.7 0 72.9-30.4 76.6-69.9.1-1.4.2-2.7.3-4.1 1.6-39.4-26.7-73.1-64.7-79.2l-3.8-.6c-132.1-21.4-264.1-41.6-395.8-61.2l-197.6-29.8c-65.6-11.3-130.7-26-196.2-38l-391.8-75.8c-129.9-28.8-258.9-62-388.2-92.5l-193.9-45.4c-34.7-8.9-69.3-18.5-103.9-28.3" transform="matrix(.13333 0 0 -.13333 0 5333.333)"/><path style="fill:#d41341;fill-opacity:1;fill-rule:nonzero;stroke:none" d="M17904.1 21215c-5.9 359.5 112.9 736.2 441.8 1100.7 240.9 266.9 569.3 417.2 899.7 417.2 45.7 0 91.5-2.9 137-8.7 8.1-1.1 16.2-2.2 24.2-3.4-318.2-174.1-778.7-549.2-661.9-1228.9-284.4-86.2-564.7-178.5-840.8-276.9m688.8-3019.2c116.7 115.2 202.6 255.6 252.6 412.2 115.3-46 230.1-93.3 344.3-141.7-148.9-111-345-204.4-596.9-270.5m730.4 387.2c-146.4 60.6-293.7 119.2-441.6 175.9 3.2 19.7 5.9 39.7 8.1 59.9 14.8 138.4 2.1 277.2-35.6 408.7 206.9 150.5 418.7 294.3 635 430.8 147.7-344.4 141.5-758.8-165.9-1075.3m-528.1 802.4c-42.2 90.5-97.1 175.3-163.7 251.4-246.9 282-543.4 695.9-667.9 1164.6 204.5 74.1 411.7 144.8 621.2 211.9 50.9-215.6 189.3-581.9 563.8-893.2 100.6-83.7 190.6-189.5 262.2-308.7-209.7-135.4-415.1-277.6-615.6-426" transform="matrix(.13333 0 0 -.13333 0 5333.333)"/><path style="fill:#000072;fill-opacity:1;fill-rule:nonzero;stroke:none" d="M17963.6 20801.4c-35.6 134-57.1 272.5-59.5 413.6 276.1 98.4 556.4 190.7 840.8 276.9 11.7-68.1 29.2-139.3 53.2-213.6l-242.7-79.7s2.6-71.7 29.4-185.3c-209.5-67.1-416.7-137.8-621.2-211.9" transform="matrix(.13333 0 0 -.13333 0 5333.333)"/><path style="fill:#7c5050;fill-opacity:1;fill-rule:nonzero;stroke:none" d="M18854.2 19227.5c-15.5 54.1-35.2 106.9-59 157.9 200.5 148.4 405.9 290.6 615.6 426 29.4-49 55.7-100.3 78.4-153.1-216.3-136.5-428.1-280.3-635-430.8m335.6-761.2c-114.2 48.4-229 95.7-344.3 141.7 15.6 48.8 27.7 99.2 36.2 150.9 147.9-56.7 295.2-115.3 441.6-175.9-39.4-40.7-83.8-79.7-133.5-116.7" transform="matrix(.13333 0 0 -.13333 0 5333.333)"/><path style="fill:#000072;fill-opacity:1;fill-rule:nonzero;stroke:none" d="M18420.4 18156.6c425.9 352.5 550.3 955.5 11.9 1548.9-488 496-686.1 1157.1-627.7 1747.9 71 20.8 128.3 79.2 144 156.7l.1.5c50.9 251.1 123.2 498 222.7 732.2 10.9 25.7 22.2 51.3 33.8 76.7 252.4 284.4 617.4 465.3 1084.1 465.3 125.5 0 258.2-13 398.3-40.7 0 0-122.9-36.9-280.8-123.3-8 1.2-16.1 2.3-24.2 3.4-45.5 5.8-91.3 8.7-137 8.7-330.4 0-658.8-150.3-899.7-417.2-328.9-364.5-447.7-741.2-441.8-1100.7 2.4-141.1 23.9-279.6 59.5-413.6 124.5-468.7 421-882.6 667.9-1164.6 66.6-76.1 121.5-160.9 163.7-251.4 23.8-51 43.5-103.8 59-157.9 37.7-131.5 50.4-270.3 35.6-408.7-2.2-20.2-4.9-40.2-8.1-59.9-8.5-51.7-20.6-102.1-36.2-150.9-50-156.6-135.9-297-252.6-412.2-54.8-14.4-112.3-27.5-172.5-39.2" transform="matrix(.13333 0 0 -.13333 0 5333.333)"/><path style="fill:#000072;fill-opacity:1;fill-rule:nonzero;stroke:none" d="M17804.6 21453.4c36.4 368.4 172.7 709.4 400.6 966.1-11.6-25.4-22.9-51-33.8-76.7-99.5-234.2-171.8-481.1-222.7-732.2l-.1-.5c-15.7-77.5-73-135.9-144-156.7" transform="matrix(.13333 0 0 -.13333 0 5333.333)"/></svg>