<!-- Generated by IcoMoon.io -->
<svg version="1.1" xmlns="http://www.w3.org/2000/svg" width="1024" height="1024" viewBox="0 0 1024 1024">
<title></title>
<g id="home">
</g>
<path fill="#d31342" d="M1011.2 536.491c7.881-7.877 12.757-18.761 12.757-30.783 0-13.905-6.522-26.288-16.673-34.255l-0.094-0.071-457.643-373.589c-10.035-7.775-22.802-12.463-36.663-12.463-14.347 0-27.521 5.022-37.86 13.404l0.112-0.088-459.179 392.533c-9.8 7.979-16.010 20.044-16.010 33.56 0 12.482 5.297 23.728 13.765 31.611l0.026 0.024 11.52 11.093c19.029 18.603 49.92 20.821 68.864 4.949l34.304-28.672v419.755c0 25.685 22.443 46.592 50.005 46.592h178.944c27.648 0 50.005-20.907 50.005-46.592v-293.632h228.267v293.547c-0.009 0.337-0.014 0.735-0.014 1.133 0 25.119 20.363 45.483 45.483 45.483 0.515 0 1.028-0.009 1.539-0.026l-0.074 0.002h189.696c27.563 0 49.92-20.821 49.92-46.592v-413.696s9.557 7.68 21.248 17.323c11.605 9.557 36.181 1.877 54.699-17.152l13.056-13.397z"></path>
</svg>
