<!-- Generated by IcoMoon.io -->
<svg version="1.1" xmlns="http://www.w3.org/2000/svg" width="1382" height="1024" viewBox="0 0 1382 1024">
<title></title>
<g id="quotes">
</g>
<path fill="#e1e1e1" d="M1024.458 0c61.714 0 120 16.651 174.856 49.951 54.858 33.301 99.428 81.171 133.714 143.61 32.914 62.439 49.372 135.977 49.372 220.619 0 84.639-20.572 167.196-61.714 247.675-13.714 29.138-38.4 66.601-74.058 112.389-37.028 45.788-71.314 85.332-102.856 118.633l-129.6 131.123-92.572-154.017c64.458-40.238 121.372-90.189 170.742-149.852 49.372-58.276 74.058-111.698 74.058-160.261 0-24.975-5.486-45.094-16.458-60.357-48 34.688-101.484 52.032-160.456 52.032-42.514 0-82.972-13.181-121.372-39.544-39.772-24.975-71.314-58.276-94.628-99.901-24.686-40.241-37.028-81.866-37.028-124.879 0-48.563 14.4-95.046 43.2-139.447 27.428-44.401 63.77-80.477 109.028-108.228 43.886-26.363 89.142-39.545 135.772-39.545zM285.942 0c61.716 0 120 16.65 174.858 49.951s99.428 81.171 133.714 143.61c32.914 62.439 49.372 135.977 49.372 220.619 0 59.663-7.544 113.083-22.628 160.259-15.086 48.563-41.144 99.21-78.172 151.936-35.658 49.951-69.258 91.576-100.8 124.877-31.544 34.688-86.4 92.273-164.572 172.749l-92.571-154.017c64.457-40.238 121.371-90.189 170.743-149.852 49.372-58.276 74.056-111.698 74.056-160.261 0-24.975-5.484-45.094-16.456-60.357-48 34.688-101.486 52.032-160.457 52.032-42.514 0-82.972-13.181-121.372-39.544-39.771-24.975-71.314-58.276-94.628-99.901-24.686-40.241-37.029-81.866-37.029-124.879 0-48.563 13.714-95.046 41.143-139.447s63.771-80.477 109.029-108.228c43.886-26.363 89.143-39.545 135.77-39.545z"></path>
</svg>
